<?xml version="1.0" encoding="UTF-8"?>
<svg width="325px" height="331px" viewBox="0 0 325 331" version="1.1" xmlns="http://www.w3.org/2000/svg" xmlns:xlink="http://www.w3.org/1999/xlink">
    <!-- Generator: Sketch 51.3 (57544) - http://www.bohemiancoding.com/sketch -->
    <title>317644-P931HB-181</title>
    <desc>Created with Sketch.</desc>
    <defs></defs>
    <g id="Desktop" stroke="none" stroke-width="1" fill="none" fill-rule="evenodd">
        <g id="7.Successful-screen" transform="translate(-521.000000, -113.000000)">
            <g id="success" transform="translate(214.000000, 113.000000)">
                <g id="317644-P931HB-181" transform="translate(469.500000, 165.500000) rotate(180.000000) translate(-469.500000, -165.500000) translate(307.000000, 0.000000)">
                    <path d="M82.8264246,222 C80.71899,222 78.7032749,221.268295 77.0861875,219.904852 C73.3828315,216.782261 72.9510438,211.277811 76.123837,207.633863 C76.7849238,206.873001 77.9483519,206.784835 78.7209133,207.436011 C79.4934747,208.087187 79.5837833,209.231258 78.9212854,209.991426 C77.0699602,212.118508 77.3218364,215.331347 79.4828917,217.152973 C80.5292009,218.03463 81.861252,218.463656 83.2370463,218.359523 C84.612135,218.254697 85.862344,217.630595 86.7590796,216.601071 C87.420872,215.840208 88.5843001,215.752737 89.3561559,216.403219 C90.1287173,217.054395 90.2190259,218.198465 89.556528,218.958633 C88.0198716,220.724028 85.8764547,221.795206 83.5206715,221.97362 C83.2885504,221.990975 83.0564292,222 82.8264246,222" id="Fill-4" fill="#315696"></path>
                    <path d="M250.280144,176 C249.762694,176 249.250649,175.769753 248.90208,175.328445 C248.293436,174.556843 248.41638,173.430961 249.177017,172.813541 C249.897123,172.2297 250.349722,171.395739 250.451051,170.466526 C250.553054,169.537314 250.292303,168.623862 249.716083,167.893375 C249.139864,167.162888 248.31843,166.703764 247.402423,166.60029 C246.484389,166.498871 245.585271,166.762011 244.865165,167.346538 C244.103852,167.965328 242.994646,167.837869 242.386002,167.066952 C241.778032,166.295349 241.901653,165.169467 242.66229,164.552733 C244.118038,163.371345 245.939919,162.834787 247.791523,163.044476 C249.644478,163.25348 251.306261,164.181322 252.470184,165.658057 C253.634783,167.134107 254.162365,168.982253 253.956331,170.861921 C253.750972,172.740904 252.835641,174.425958 251.380568,175.608031 C251.054967,175.871856 250.665866,176 250.280144,176" id="Fill-5" fill="#70BEDF"></path>
                    <path d="M305.965315,131.285515 C305.859929,131.831325 305.523965,132.325533 305.005519,132.602436 C304.101599,133.087196 302.986198,132.725988 302.515141,131.796439 C302.069546,130.917039 301.31628,130.268026 300.396092,129.970048 C299.475904,129.671342 298.497718,129.760009 297.641893,130.217879 C296.785362,130.676475 296.154457,131.449767 295.863759,132.394577 C295.574476,133.343749 295.658644,134.346701 296.104946,135.226102 C296.578125,136.156377 296.224479,137.301779 295.320558,137.785086 C294.415931,138.269119 293.30053,137.907911 292.829473,136.979089 C291.928382,135.199211 291.754388,133.165688 292.342148,131.25499 C292.928494,129.342112 294.20445,127.778087 295.935903,126.852172 C297.665941,125.926258 299.644947,125.748198 301.506541,126.350696 C303.367429,126.953921 304.888816,128.265028 305.790614,130.043452 C305.992193,130.440999 306.043118,130.878519 305.965315,131.285515" id="Fill-6" fill="#315696"></path>
                    <path d="M229.835782,268 C229.297343,268 228.76503,267.755796 228.415828,267.291946 C226.080322,264.189605 226.699084,259.76188 229.793579,257.422846 C231.292496,256.289141 233.141977,255.810284 235.00303,256.06813 C236.862722,256.329387 238.510713,257.300062 239.641368,258.802801 C240.232222,259.588618 240.07702,260.704588 239.293526,261.296679 C238.509352,261.889453 237.394354,261.733244 236.804181,260.948109 C236.24464,260.205266 235.430514,259.725045 234.510198,259.59544 C233.593285,259.468563 232.676373,259.705263 231.935083,260.265976 C230.403492,261.422874 230.098535,263.612521 231.253015,265.146638 C231.843868,265.931773 231.688667,267.048424 230.904493,267.640516 C230.58456,267.883355 230.20881,268 229.835782,268" id="Fill-7" fill="#315696"></path>
                    <path d="M37.8354237,148 C37.2969883,148 36.7646792,147.756471 36.415479,147.291924 C34.0806707,144.189484 34.6987482,139.762301 37.7939009,137.422511 C39.2921263,136.28877 41.1422748,135.809897 43.0026338,136.068434 C44.862312,136.329699 46.5102919,137.300405 47.6416189,138.803192 C48.2324684,139.588352 48.0765876,140.705039 47.2930994,141.297149 C46.5089305,141.889259 45.3946211,141.733728 44.8044523,140.947886 C44.2442345,140.205701 43.4301147,139.724782 42.5098054,139.595855 C41.5935803,139.468292 40.6759938,139.705 39.9347092,140.265731 C38.4031293,141.423347 38.0981748,143.613064 39.2526456,145.147229 C39.8434951,145.932389 39.688295,147.049076 38.9048068,147.641187 C38.5841961,147.883352 38.2084485,148 37.8354237,148" id="Fill-8" fill="#315696"></path>
                    <path d="M169.936084,303 C169.508903,303 169.079539,302.865069 168.725859,302.587633 C167.178693,301.376693 166.223176,299.668022 166.033964,297.776918 C165.845481,295.885814 166.445863,294.038081 167.72595,292.575178 C170.369087,289.55368 175.11538,289.12961 178.310869,291.629282 C179.119383,292.261944 179.23291,293.395092 178.564121,294.159932 C177.894604,294.924773 176.69675,295.03079 175.888964,294.399504 C174.309049,293.162404 171.960645,293.373751 170.653632,294.866945 C170.020501,295.59048 169.723585,296.503332 169.816735,297.43959 C169.910613,298.374471 170.382914,299.219857 171.147764,299.818099 C171.956279,300.45145 172.069806,301.583909 171.401016,302.34875 C171.024777,302.778327 170.482614,303 169.936084,303" id="Fill-9" fill="#DDC860"></path>
                    <path d="M38.515127,196.366056 C38.2328758,196.661895 37.8465623,196.867963 37.4010901,196.928491 C35.453842,197.193046 33.5158597,196.718343 31.9428082,195.590753 C30.3704695,194.463843 29.3512291,192.820744 29.0739672,190.963417 C28.5023373,187.127706 31.3063175,183.564712 35.3269715,183.017919 C36.3447864,182.879861 37.2863364,183.554511 37.4317386,184.52568 C37.5764279,185.496849 36.8679489,186.394569 35.8515595,186.533307 C33.8629716,186.802623 32.4773749,188.566778 32.7589133,190.46287 C32.8964751,191.381673 33.3996805,192.193701 34.1772968,192.751375 C34.9556258,193.309049 35.914282,193.54436 36.876502,193.413103 C37.8943169,193.275045 38.8365797,193.949694 38.9812691,194.920864 C39.0625232,195.466296 38.8743558,195.987926 38.515127,196.366056" id="Fill-10" fill="#DDC860"></path>
                    <path d="M57.8336492,155 C57.2854408,155 56.7428479,154.757389 56.3820552,154.293718 C55.7636537,153.500542 55.9117612,152.360481 56.7119629,151.748045 C58.8732095,150.095652 60.8772234,150.296553 62.3421541,150.444622 C63.5993131,150.570446 64.3581009,150.646218 65.3618627,149.878762 C66.3663264,149.110612 66.4842509,148.364706 66.6793878,147.129408 C66.9054097,145.689733 67.2156633,143.718262 69.3769099,142.066564 C71.5395603,140.413475 73.5442762,140.614376 75.0071011,140.76175 C76.2628562,140.887574 77.0223459,140.963346 78.0289154,140.1945 C79.034783,139.425654 79.1527075,138.679748 79.3478444,137.44306 C79.5752701,136.003386 79.8862257,134.031914 82.0474723,132.378826 C82.8497798,131.765695 83.9995433,131.912374 84.6179448,132.706246 C85.2363463,133.499422 85.0882388,134.639483 84.2880371,135.251919 C83.2814675,136.020765 83.1635431,136.767366 82.9691081,138.003359 C82.7416823,139.443033 82.4300248,141.4152 80.2687783,143.067593 C78.1068298,144.721377 76.101412,144.519085 74.6385871,144.372407 C73.382832,144.246583 72.6233423,144.170115 71.6167727,144.939657 C70.6116071,145.707808 70.4943845,146.453018 70.2999496,147.688316 C70.0739277,149.127991 69.7629721,151.099462 67.6010236,152.751855 C65.440479,154.403553 63.4357631,154.203348 61.9722363,154.055279 C60.7164812,153.93015 59.9569915,153.853683 58.9525277,154.621138 C58.6184084,154.876262 58.224625,155 57.8336492,155" id="Fill-11" fill="#E46889"></path>
                    <path d="M263.177961,255 C262.795916,255 262.410386,254.879778 262.082022,254.629492 C261.074624,253.861761 260.321689,253.945424 259.07586,254.087441 C257.620883,254.250548 255.632578,254.472712 253.469981,252.825465 C251.305991,251.175406 250.976931,249.184367 250.737107,247.731162 C250.530747,246.482545 250.405955,245.728875 249.399253,244.961847 C248.393946,244.194819 247.639616,244.279888 246.395182,244.421201 C244.945086,244.587121 242.954688,244.809988 240.791395,243.161335 C238.628102,241.511979 238.299041,239.52094 238.059218,238.067735 C237.852858,236.819118 237.728763,236.066151 236.722758,235.299826 C235.921022,234.688172 235.762069,233.537279 236.367903,232.728771 C236.975131,231.91956 238.116385,231.76067 238.918121,232.370918 C241.080717,234.020274 241.409778,236.011313 241.650299,237.464518 C241.855961,238.711729 241.980056,239.465399 242.986758,240.232427 C243.991368,240.998752 244.745,240.913683 245.990131,240.773073 C247.44232,240.608559 249.431323,240.383583 251.593919,242.032939 C253.757909,243.682998 254.08697,245.674037 254.326793,247.127242 C254.533153,248.375859 254.657945,249.129529 255.664647,249.896557 C256.672046,250.663585 257.424284,250.579922 258.672204,250.438609 C260.125089,250.276205 262.114092,250.051228 264.277385,251.700585 C265.079122,252.312238 265.238074,253.463132 264.631544,254.27164 C264.2739,254.749011 263.729416,255 263.177961,255" id="Fill-12" fill="#70BEDF"></path>
                    <path d="M312.683607,229.964782 C312.318391,230.068334 311.918591,230.057979 311.538158,229.910244 C310.370575,229.456685 309.674037,229.739037 308.523054,230.208475 C307.177014,230.755231 305.338485,231.500808 302.83247,230.527416 C300.325072,229.551953 299.477744,227.759117 298.859368,226.450905 C298.327453,225.327017 298.007198,224.647714 296.840307,224.194845 C295.67549,223.741285 294.978261,224.025019 293.82797,224.493766 C292.488154,225.041213 290.647551,225.788861 288.140844,224.813397 C285.633446,223.838625 284.786118,222.046479 284.168433,220.736887 C283.636519,219.612999 283.315572,218.935766 282.150755,218.482897 C281.221116,218.120464 280.76183,217.075966 281.123587,216.148827 C281.486035,215.220998 282.533263,214.762607 283.46152,215.122969 C285.968226,216.098432 286.815554,217.891268 287.433931,219.20017 C287.965153,220.323368 288.285409,221.00129 289.451608,221.454159 C290.616425,221.907719 291.312963,221.624675 292.463945,221.155929 C293.806527,220.609172 295.645056,219.860834 298.151762,220.835607 C300.659161,221.81176 301.506489,223.603906 302.124865,224.912808 C302.656088,226.036005 302.977035,226.714619 304.143926,227.168178 C305.311509,227.621737 306.006664,227.340075 307.159721,226.869947 C308.502995,226.324571 310.342907,225.576233 312.849614,226.551696 C313.778562,226.912749 314.237848,227.957937 313.876783,228.885076 C313.662357,229.432522 313.209296,229.817047 312.683607,229.964782" id="Fill-13" fill="#315696"></path>
                    <path d="M54.9698034,220.143869 C54.9003251,220.518158 54.7141233,220.874392 54.411198,221.150768 C53.4829683,222.000036 53.4280805,222.752779 53.3405378,223.998557 C53.2363204,225.452658 53.0925004,227.440068 51.0991687,229.263597 C49.1044474,231.087126 47.110421,231.052406 45.6548511,231.026712 C44.4042422,231.005186 43.6490133,230.991297 42.7214783,231.840565 C41.7946382,232.687054 41.7411399,233.441187 41.6529025,234.685575 C41.5514642,236.13551 41.408339,238.125698 39.4143125,239.948533 C37.420286,241.772062 35.4255647,241.738036 33.9699949,241.711648 C32.7193859,241.689427 31.9648519,241.676927 31.0380117,242.524111 C30.2987628,243.20047 29.1523713,243.149777 28.4756529,242.410922 C27.7989345,241.672066 27.8510432,240.524896 28.5889025,239.849232 C30.582929,238.026397 32.5776503,238.061812 34.0339149,238.086811 C35.2831343,238.109032 36.0376683,238.122226 36.9652033,237.273653 C37.8920435,236.426469 37.9455417,235.673031 38.0344739,234.427948 C38.136607,232.97593 38.2783427,230.987825 40.2716744,229.164991 C42.2670904,227.341462 44.2618117,227.376182 45.7173815,227.401876 C46.9679905,227.423402 47.7232193,227.436596 48.6507543,226.588023 C49.578984,225.738756 49.6331771,224.987401 49.7214145,223.739541 C49.8263267,222.287523 49.9680624,220.298723 51.9620889,218.475889 C52.7013377,217.79953 53.848424,217.850223 54.5251424,218.589078 C54.9239477,219.025864 55.0691573,219.60431 54.9698034,220.143869" id="Fill-14" fill="#DDC860"></path>
                    <path d="M113.810186,289.095298 C113.96672,289.448585 114.014667,289.854054 113.920888,290.258818 C113.631794,291.503432 114.018193,292.164875 114.65984,293.258584 C115.407254,294.537045 116.428955,296.28303 115.80846,298.953485 C115.185851,301.625349 113.496413,302.741623 112.26318,303.556792 C111.204814,304.255609 110.565281,304.678002 110.276187,305.921206 C109.987093,307.162999 110.375607,307.825147 111.015845,308.918151 C111.763964,310.190266 112.787075,311.939071 112.16517,314.610231 C111.54397,317.282096 109.853828,318.397664 108.620595,319.212128 C107.561523,319.911651 106.922696,320.334044 106.634307,321.575131 C106.403737,322.566591 105.414471,323.182199 104.423795,322.951611 C103.433824,322.720317 102.818265,321.730973 103.04813,320.741628 C103.670035,318.070468 105.358768,316.9549 106.592001,316.139026 C107.650367,315.440914 108.289899,315.018521 108.578993,313.776022 C108.868793,312.534935 108.480278,311.873491 107.840041,310.779782 C107.091217,309.504847 106.068106,307.758862 106.69001,305.086997 C107.31262,302.414427 109.001353,301.298153 110.234586,300.484395 C111.293657,299.784872 111.93319,299.362479 112.222284,298.119276 C112.511378,296.875368 112.124979,296.214629 111.482626,295.11951 C110.735917,293.842459 109.712101,292.096474 110.334711,289.425315 C110.565281,288.433855 111.554547,287.818247 112.544518,288.04813 C113.129052,288.184932 113.583141,288.585465 113.810186,289.095298" id="Fill-15" fill="#DDC860"></path>
                    <path d="M51.8336524,193 C51.2854431,193 50.7428492,192.757378 50.3820559,192.294382 C49.7636533,191.501169 49.9117611,190.361056 50.7119642,189.748593 C52.8725126,188.096125 54.877232,188.298426 56.3421652,188.444416 C57.5993264,188.572331 58.3581155,188.646716 59.361879,187.879226 C60.3663445,187.110345 60.4842692,186.365101 60.6794064,185.129747 C60.9054287,183.689312 61.2156829,181.718446 63.3762313,180.065978 C65.5381836,178.41351 67.5429029,178.615116 69.0071342,178.761106 C70.2656993,178.88763 71.0230845,178.962711 72.0282519,178.194525 C73.0348232,177.425644 73.1527479,176.67901 73.3471832,175.442961 C73.5753113,174.003221 73.8862674,172.030965 76.0475177,170.378497 C76.8498266,169.766034 77.9995922,169.912024 78.6179948,170.706627 C79.2363973,171.499839 79.0882896,172.639257 78.2873845,173.25172 C77.2815152,174.021296 77.1635905,174.767235 76.9691552,176.003284 C76.7410271,177.443024 76.430071,179.41528 74.2688207,181.067748 C72.1068684,182.720911 70.102851,182.519306 68.6372158,182.373316 C67.3793526,182.245401 66.6205636,182.171016 65.6168,182.939201 C64.6116326,183.707387 64.4944099,184.453326 64.2999745,185.687985 C64.0732503,187.12842 63.7629961,189.099981 61.6010439,190.751754 C59.4404955,192.404222 57.4350742,192.201226 55.9722467,192.055931 C54.7157875,191.928711 53.9562964,191.853631 52.9525329,192.621816 C52.618413,192.876951 52.2246288,193 51.8336524,193" id="Fill-16" fill="#70BEDF"></path>
                    <path d="M220.612147,298.388091 C220.084555,297.760879 219.620588,296.962282 219.308179,295.908768 C218.511071,293.226375 219.434715,291.381465 220.109576,290.034148 C220.572828,289.106653 221.695928,288.734358 222.615997,289.201707 C223.537497,289.670495 223.906383,290.79962 223.443131,291.725676 L223.441701,291.727836 C222.862636,292.884325 222.513053,293.582828 222.883368,294.83077 C223.252969,296.077993 223.92783,296.46829 225.044496,297.115664 C226.34346,297.868175 228.122833,298.898645 228.920656,301.580318 C229.217337,302.575503 228.656145,303.623257 227.668875,303.92066 C226.68089,304.218064 225.640003,303.653501 225.345466,302.659756 C224.973721,301.411093 224.301005,301.020796 223.184339,300.374861 C222.395095,299.919035 221.427842,299.358793 220.612147,298.388091" id="Fill-17" fill="#D55155"></path>
                    <path d="M142.111496,313.785149 C141.966153,312.989746 141.94539,312.076348 142.154969,311.015099 C142.690272,308.31471 144.227402,307.163898 145.349915,306.323714 C146.122049,305.74511 147.176433,305.96333 147.705248,306.809201 C148.232115,307.657205 148.033567,308.810148 147.262082,309.387331 L147.260135,309.388042 C146.29659,310.110231 145.71457,310.54525 145.46606,311.802684 C145.216901,313.057274 145.582853,313.719043 146.188232,314.814411 C146.892885,316.088904 147.857728,317.834668 147.324372,320.53648 C147.126472,321.538019 146.223919,322.17491 145.310335,321.957401 C144.396103,321.73918 143.814083,320.751146 144.013281,319.750317 C144.261791,318.493594 143.896487,317.832536 143.291109,316.73859 C142.862866,315.964511 142.337296,315.015572 142.111496,313.785149" id="Fill-18" fill="#315696"></path>
                    <path d="M311.259391,173.686837 C310.486736,173.942604 309.582582,174.072692 308.502145,173.958038 C305.752719,173.666993 304.421365,172.06992 303.449683,170.9028 C302.780808,170.100222 302.868238,168.888269 303.644446,168.19667 C304.422076,167.504336 305.592075,167.594736 306.26024,168.397315 L306.261661,168.398785 C307.096867,169.400538 307.600834,170.005412 308.880298,170.140645 C310.15763,170.276613 310.770351,169.787863 311.785393,168.98014 C312.966054,168.040123 314.581733,166.752469 317.33187,167.04131 C318.351887,167.148614 319.094687,168.090835 318.990198,169.144771 C318.885708,170.198707 317.974445,170.967477 316.95585,170.858703 C315.675675,170.724205 315.064375,171.21075 314.050755,172.019208 C313.334255,172.591008 312.45569,173.291427 311.259391,173.686837" id="Fill-19" fill="#70BEDF"></path>
                    <path d="M19.2859245,218.816972 C18.7361395,219.416448 18.0141497,219.974283 17.0246778,220.410069 C14.5065354,221.519995 12.6038135,220.81642 11.2141772,220.302379 C10.257876,219.949155 9.76384579,218.872971 10.1110784,217.899452 C10.4604283,216.926651 11.5162414,216.424815 12.4718369,216.778757 L12.4732484,216.779474 C13.6673899,217.221004 14.3872624,217.487358 15.5588197,216.970445 C16.7296712,216.454968 17.0303239,215.736316 17.5300001,214.546698 C18.1108384,213.162521 18.906227,211.267174 21.4243694,210.155812 C22.3580864,209.742999 23.4428355,210.178785 23.8472345,211.128613 C24.2523392,212.07844 23.8239445,213.183341 22.8909332,213.594 C21.7193759,214.11163 21.4180175,214.828129 20.9197528,216.017746 C20.5675799,216.858447 20.1356564,217.888683 19.2859245,218.816972" id="Fill-20" fill="#70BEDF"></path>
                    <path d="M90.8490701,157 C89.5785193,157 88.5282256,156.620047 87.6726931,156.310814 C86.4779221,155.879553 85.7555354,155.618162 84.5777617,156.112518 C83.6429083,156.507031 82.5529542,156.081317 82.1499757,155.161247 C81.7477054,154.242564 82.1825539,153.178972 83.1209485,152.785151 C85.6528431,151.722253 87.560794,152.412131 88.953159,152.914807 C90.14793,153.346762 90.8696085,153.606766 92.0480904,153.113104 C93.2244477,152.619442 93.5289832,151.928176 94.0339457,150.782769 C94.621062,149.448772 95.4256025,147.621113 97.9582055,146.558907 C100.4901,145.496701 102.396635,146.185194 103.789,146.687176 C104.747933,147.033156 105.238731,148.073867 104.885328,149.011964 C104.531925,149.949368 103.469591,150.430549 102.511367,150.08457 C101.315179,149.652616 100.592792,149.391918 99.4143105,149.886273 C98.2379533,150.379935 97.9334177,151.071201 97.4291634,152.216608 C96.8413389,153.551298 96.0367984,155.378264 93.5049037,156.44047 C92.5289734,156.850237 91.6458202,156.999307 90.8490701,157" id="Fill-21" fill="#315696"></path>
                    <path d="M34.5656204,301.86416 C34.05057,302.069531 33.4471846,302.048716 32.9278599,301.755924 C32.0395227,301.254292 31.736049,300.145567 32.250387,299.280373 C33.6388146,296.944973 35.599283,296.380203 37.0318782,295.968768 C38.2621576,295.614226 39.004457,295.400529 39.6491605,294.316087 C40.2945763,293.230258 40.115769,292.49689 39.8194192,291.282704 C39.4732027,289.868698 38.9994704,287.931552 40.387898,285.596846 C41.7784628,283.260059 43.7389311,282.694595 45.1701016,282.283159 C46.3989562,281.930005 47.141968,281.715614 47.7888086,280.629092 C48.4349368,279.541181 48.2561295,278.808507 47.9590673,277.593627 C47.6142756,276.17754 47.141968,274.240393 48.5303956,271.904299 C49.0461584,271.037718 50.1824037,270.742844 51.0714533,271.244476 C51.9605029,271.746108 52.2639766,272.85414 51.7496386,273.720027 C51.102798,274.807244 51.2816053,275.540612 51.5786675,276.755492 C51.9234592,278.170886 52.3964792,280.108726 51.0080515,282.444126 C49.6181991,284.780219 47.656306,285.344295 46.225848,285.757118 C44.9969933,286.110967 44.2539815,286.324664 43.6071409,287.41188 C42.9617251,288.497015 43.1412447,289.22969 43.4375946,290.443876 C43.7838111,291.858575 44.256831,293.795722 42.867691,296.131122 C41.4792634,298.466521 39.5180826,299.031291 38.0861998,299.443421 C36.8580576,299.797269 36.1150458,300.010966 35.4696299,301.096101 C35.2544913,301.456194 34.9324958,301.717764 34.5656204,301.86416" id="Fill-22" fill="#E46889"></path>
                    <path d="M77.566029,330.864156 C77.0502791,331.069533 76.4469087,331.048718 75.9283093,330.755917 C75.0392819,330.254272 74.7358158,329.14621 75.2508533,328.280992 C76.638534,325.945529 78.5996659,325.382131 80.0329378,324.968603 C81.2624742,324.615439 82.0040427,324.401043 82.6494425,323.315878 C83.2948422,322.230019 83.1160394,321.496631 82.8196969,320.282412 C82.4727768,318.867674 81.9997686,316.931168 83.3881616,314.596398 C84.7779794,312.260241 86.738399,311.69615 88.1709584,311.283315 C89.4012072,310.928763 90.1420634,310.714367 90.7881755,309.628508 C91.4357124,308.541262 91.2569096,307.807874 90.9598547,306.592961 C90.6143593,305.177529 90.141351,303.239635 91.5297441,300.904172 C92.045494,300.03826 93.1831357,299.742685 94.0721632,300.244331 C94.9604783,300.745977 95.2639444,301.854038 94.7496192,302.71995 C94.1027948,303.806502 94.2815976,304.53989 94.5786524,305.754803 C94.9234355,307.170235 95.3964437,309.108129 94.0073383,311.443592 C92.6182329,313.779749 90.6585257,314.343841 89.2252538,314.757369 C87.9935804,315.110533 87.2520118,315.325624 86.6073244,316.411482 C85.9612123,317.497341 86.1407274,318.230035 86.4370699,319.44356 C86.7832777,320.858299 87.2569983,322.795498 85.8671805,325.131655 C84.4794998,327.467119 82.5176556,328.029823 81.0865208,328.443351 C79.8576968,328.795821 79.1154158,329.010911 78.4693037,330.096076 C78.2555952,330.456873 77.932183,330.717756 77.566029,330.864156" id="Fill-23" fill="#70BEDF"></path>
                    <path d="M65.2091178,291.879738 C64.0459712,292.368856 62.9402466,292.408417 62.0390006,292.439346 C60.7799171,292.485381 60.0194251,292.511995 59.1307839,293.439881 C58.4263134,294.177874 57.2659679,294.188663 56.5453912,293.460021 C55.8262151,292.733537 55.8171116,291.543829 56.5250834,290.805117 C58.4354169,288.811961 60.4451886,288.739312 61.9122519,288.686804 C63.1706351,288.642208 63.9304268,288.614155 64.8197683,287.686989 C65.7077092,286.760542 65.7217146,285.979391 65.7455237,284.686106 C65.7728342,283.178471 65.8106487,281.114105 67.7209822,279.120949 C69.632016,277.126354 71.6403871,277.054425 73.1067502,277.001198 C74.1158376,276.964514 74.963163,277.775155 74.9988767,278.810934 C75.0338901,279.848152 74.2460876,280.717776 73.2370002,280.754459 C71.9772165,280.799775 71.2167245,280.827108 70.3266827,281.754994 C69.4394421,282.68216 69.4254367,283.462591 69.4009273,284.756596 C69.3743171,286.263511 69.3365025,288.327877 67.426169,290.321034 C66.6894862,291.090675 65.9380977,291.5726 65.2091178,291.879738" id="Fill-24" fill="#315696"></path>
                    <path d="M287.692993,159.200338 C287.996479,159.649577 288.092021,160.226479 287.902342,160.777159 C287.576376,161.71911 286.534548,162.223555 285.575617,161.904051 C282.988259,161.040767 282.048296,159.289358 281.362643,158.007889 C280.772532,156.9086 280.416357,156.245438 279.215059,155.844505 C278.011653,155.443572 277.318975,155.756175 276.170365,156.274421 C274.833482,156.879617 273.002029,157.707706 270.414671,156.844423 C267.825909,155.98045 266.885946,154.22766 266.200292,152.948952 C265.610883,151.850353 265.254709,151.186501 264.050601,150.784187 C262.846492,150.382564 262.152409,150.695168 261.003097,151.214794 C259.665511,151.818609 257.833355,152.646009 255.245295,151.782725 C254.284959,151.462531 253.772124,150.43984 254.098091,149.497198 C254.424057,148.555246 255.466587,148.050802 256.424816,148.370306 C257.629627,148.77262 258.323007,148.460016 259.471617,147.94039 C260.809906,147.336574 262.642061,146.509175 265.230121,147.372458 C267.818884,148.236432 268.758847,149.989911 269.4445,151.26862 C270.033909,152.365839 270.390083,153.03038 271.594192,153.432694 C272.797597,153.834317 273.489573,153.521024 274.638183,153.002087 C275.975066,152.397582 277.807222,151.569492 280.395282,152.433466 C282.981937,153.296749 283.9219,155.048849 284.607553,156.328937 C285.197665,157.426156 285.553137,158.090698 286.75584,158.491631 C287.154867,158.625506 287.476619,158.880143 287.692993,159.200338" id="Fill-25" fill="#E46889"></path>
                    <path d="M270.5486,131.076371 C271.23208,132.112136 271.482184,133.177 271.686125,134.045795 C271.972056,135.258229 272.143615,135.991232 273.186748,136.678509 C274.016983,137.222373 274.250551,138.346126 273.705559,139.182359 C273.161945,140.0179 272.045779,140.25138 271.214855,139.704052 C268.973566,138.227654 268.518142,136.291223 268.186049,134.878564 C267.900806,133.665437 267.727869,132.93382 266.685425,132.246543 C265.642981,131.559959 264.907827,131.693673 263.688313,131.915375 C262.266923,132.173797 260.321212,132.527135 258.079234,131.050736 C255.837255,129.573645 255.381832,127.639293 255.049049,126.226634 C254.819615,125.254608 255.416971,124.279118 256.383626,124.049102 C257.350281,123.819086 258.320381,124.419068 258.549126,125.391094 C258.835057,126.604913 259.007305,127.337916 260.050438,128.025193 C261.092193,128.711085 261.828036,128.577371 263.04824,128.355668 C264.46894,128.097247 266.415341,127.743909 268.65663,129.220307 C269.520625,129.789805 270.120048,130.427199 270.5486,131.076371" id="Fill-26" fill="#DDC860"></path>
                    <path d="M94.7849692,277 C94.0925598,277 93.4329596,276.588307 93.1438291,275.900765 C92.7569547,274.982426 93.1773217,273.918539 94.083674,273.526252 C95.2149055,273.035547 95.8977456,272.7396 96.3885155,271.589077 C96.8799689,270.438554 96.6256982,269.731606 96.2039641,268.56029 C95.7118271,267.196297 95.0385564,265.327736 96.0946003,262.854112 C97.1506443,260.379101 98.9551465,259.5973 100.27298,259.02689 C101.403528,258.536878 102.086368,258.240931 102.577821,257.090408 C102.968797,256.173455 104.02074,255.752751 104.923674,256.149197 C105.82866,256.545642 106.244242,257.610915 105.852583,258.527868 C104.796539,261.002879 102.992037,261.78468 101.674203,262.35509 C100.543655,262.845102 99.8608152,263.14105 99.3693618,264.291573 C98.8792754,265.441402 99.1342297,266.14835 99.5559637,267.318973 C100.047417,268.683659 100.720688,270.55222 99.6639604,273.025844 C98.6079165,275.501548 96.8034143,276.283349 95.4855808,276.853759 C95.257284,276.95287 95.0194178,277 94.7849692,277" id="Fill-27" fill="#D55155"></path>
                    <path d="M296.976984,196.466741 C296.865391,197.16695 296.358087,197.766429 295.640604,197.946202 C294.682819,198.188233 293.71408,197.590852 293.477886,196.61154 C293.181445,195.388798 293.002759,194.650816 291.960081,193.968795 C290.917403,193.286075 290.187597,193.428075 288.977186,193.663809 C287.568921,193.939416 285.638289,194.315752 283.39684,192.846783 C281.154705,191.379214 280.683001,189.429683 280.338637,188.005483 C280.043565,186.78414 279.864879,186.046858 278.822201,185.363438 C277.991071,184.81992 277.750769,183.688814 278.28272,182.841009 C278.815355,181.991805 279.921018,181.744179 280.752148,182.289796 C282.993598,183.757366 283.465986,185.706897 283.809666,187.130397 C284.104738,188.352439 284.283424,189.089721 285.325417,189.773141 C286.368095,190.455163 287.097901,190.312463 288.307627,190.076029 C289.716577,189.801821 291.647209,189.424786 293.888658,190.893755 C296.132162,192.362723 296.603181,194.311555 296.946861,195.735755 C297.007108,195.982681 297.014639,196.230307 296.976984,196.466741" id="Fill-28" fill="#D55155"></path>
                    <path d="M301.675382,267.643347 C301.375684,268.063854 300.893591,268.350014 300.334201,268.382929 C299.358488,268.440698 298.520419,267.703132 298.462785,266.736503 C298.407863,265.820926 297.996287,264.981927 297.304677,264.373334 C296.613067,263.76474 295.723466,263.459772 294.799285,263.514183 C293.875782,263.567922 293.028899,263.974994 292.414586,264.660165 C291.799596,265.348023 291.491083,266.227327 291.546005,267.142232 C291.604995,268.110204 290.859819,268.939799 289.884107,268.996896 C288.908394,269.053994 288.069647,268.316427 288.012691,267.35047 C287.901491,265.499164 288.52394,263.715704 289.766804,262.331926 C291.00899,260.945462 292.72242,260.121913 294.590446,260.01242 C296.457793,259.902927 298.25598,260.520253 299.654795,261.750874 C301.054289,262.981496 301.884899,264.678302 301.996777,266.528265 C302.021865,266.942054 301.899138,267.330318 301.675382,267.643347" id="Fill-29" fill="#DDC860"></path>
                    <path d="M290.023992,308.922397 C289.228834,308.834103 288.364256,308.581834 287.43587,308.047864 C285.073534,306.687013 284.497851,304.760659 284.077132,303.353559 C283.787537,302.385827 284.338679,301.36624 285.307033,301.076832 C286.277491,300.788124 287.295631,301.33821 287.584524,302.305242 L287.585225,302.307344 C287.947044,303.515432 288.164415,304.244209 289.263893,304.877684 C290.361268,305.510459 291.103136,305.331768 292.332336,305.037455 C293.761377,304.694789 295.718421,304.225289 298.082159,305.585439 C298.958657,306.088575 299.260172,307.207668 298.755309,308.082902 C298.250447,308.958135 297.130634,309.260157 296.255538,308.755619 C295.155359,308.122844 294.415595,308.300133 293.187797,308.594447 C292.319013,308.80397 291.255296,309.059743 290.023992,308.922397" id="Fill-30" fill="#70BEDF"></path>
                    <path d="M277.975158,284.902028 C278.064609,285.433797 277.912962,285.999361 277.512532,286.424914 C276.826979,287.153251 275.672511,287.195324 274.933846,286.519405 C272.942178,284.694425 272.812894,282.719087 272.720649,281.274828 C272.639584,280.036103 272.590666,279.287765 271.666113,278.440798 C270.739463,277.591761 269.981232,277.599348 268.724035,277.611763 C267.259285,277.626936 265.253641,277.646938 263.261973,275.822647 C261.269606,273.995598 261.140322,272.01957 261.047377,270.577381 C260.967012,269.340036 260.918094,268.591007 259.991444,267.741281 C259.063397,266.892244 258.305165,266.898452 257.046571,266.912246 C255.581821,266.925351 253.575477,266.946042 251.583111,265.120372 C250.844446,264.443074 250.801818,263.304358 251.48807,262.575331 C252.172924,261.846305 253.327393,261.804922 254.066057,262.480841 C254.992707,263.330567 255.752336,263.32367 257.010231,263.310565 C258.474981,263.296771 260.481324,263.27608 262.472992,265.102439 C264.466757,266.92811 264.594643,268.904827 264.688286,270.346327 C264.769351,271.584361 264.81757,272.3327 265.744919,273.183116 C266.67087,274.031463 267.429101,274.023876 268.686298,274.011461 C270.151048,273.995598 272.156692,273.975596 274.14836,275.801956 C276.140028,277.626247 276.269312,279.602274 276.361558,281.045153 C276.443321,282.282498 276.49154,283.031527 277.416792,283.879184 C277.724278,284.161966 277.910866,284.523376 277.975158,284.902028" id="Fill-31" fill="#E46889"></path>
                    <path d="M208.826379,322.102646 C208.537507,322.570257 208.03015,322.910213 207.417215,322.985142 C206.369508,323.112105 205.409781,322.41138 205.274877,321.41996 C204.911222,318.743333 206.151755,317.135136 207.059426,315.960556 C207.838058,314.951791 208.306557,314.342647 208.13866,313.099382 C207.969297,311.854729 207.352696,311.378098 206.331383,310.589263 C205.139973,309.669996 203.509391,308.411468 203.146469,305.734841 C202.782814,303.056826 204.023347,301.448629 204.930285,300.274743 C205.707451,299.267365 206.177416,298.657527 206.008052,297.411487 C205.839422,296.165447 205.222822,295.688816 204.200042,294.899287 C203.010098,293.979327 201.379516,292.719411 201.015861,290.04209 C200.880957,289.049282 201.621464,288.142503 202.670638,288.014847 C203.718346,287.887884 204.678072,288.589302 204.812977,289.580028 C204.981607,290.826762 205.598941,291.303393 206.620987,292.092922 C207.811664,293.013576 209.442246,294.272798 209.805901,296.949426 C210.169556,299.62744 208.927557,301.236331 208.022085,302.409523 C207.244919,303.418288 206.774221,304.027433 206.943584,305.272779 C207.112215,306.517432 207.728815,306.993369 208.750861,307.782898 C209.941538,308.701471 211.57212,309.960693 211.935042,312.638014 C212.298697,315.313947 211.057431,316.922838 210.151226,318.096724 C209.37406,319.104795 208.904095,319.71394 209.071992,320.957898 C209.127714,321.371395 209.032401,321.769628 208.826379,322.102646" id="Fill-32" fill="#E46889"></path>
                    <path d="M267.500586,324.191271 C267.116157,324.773021 266.409302,325.103091 265.678334,324.971063 C264.701414,324.795025 264.051741,323.860513 264.228111,322.884743 C264.447883,321.666921 264.581538,320.931139 263.898796,319.891417 C263.215365,318.85032 262.487842,318.678409 261.281504,318.393723 C259.876751,318.062965 257.952535,317.607743 256.484399,315.370828 C255.015575,313.133226 255.366935,311.190625 255.623911,309.77201 C255.843683,308.554188 255.976649,307.819781 255.293907,306.778684 C254.749643,305.949382 254.983194,304.836082 255.81337,304.293529 C256.643545,303.750288 257.758943,303.982713 258.302518,304.812015 C259.771343,307.049617 259.420671,308.992219 259.163007,310.410834 C258.943234,311.627968 258.810269,312.36375 259.49301,313.404159 C260.175752,314.443881 260.903964,314.615105 262.109613,314.899791 C263.514366,315.231236 265.439271,315.686458 266.907407,317.923373 C268.376921,320.161662 268.024871,322.104264 267.767896,323.523567 C267.723804,323.769056 267.630796,323.994605 267.500586,324.191271" id="Fill-33" fill="#DDC860"></path>
                    <path d="M22.4476202,166.157965 C22.9572239,166.65816 23.1503517,167.432407 22.8733472,168.14043 C22.5047127,169.08587 21.4375757,169.554363 20.4909673,169.185205 C19.3089404,168.725166 18.5949313,168.446888 17.414314,168.927357 C16.2336967,169.407827 15.9179257,170.104578 15.394225,171.259255 C14.785238,172.604147 13.9499953,174.445712 11.4111396,175.479215 C8.87157899,176.512717 6.98682045,175.778627 5.61025597,175.241798 C4.42822903,174.781759 3.71562959,174.503481 2.53430749,174.983951 C1.59333792,175.367199 0.51844758,174.9135 0.136420981,173.974401 C-0.24701531,173.033188 0.205495901,171.960233 1.14717032,171.577689 C3.6867309,170.543482 5.57078459,171.278276 6.94734907,171.815106 C8.12867117,172.275145 8.84268029,172.553423 10.0240024,172.072953 C11.2039148,171.592484 11.518981,170.895733 12.0419768,169.741056 C12.6516687,168.396164 13.4869114,166.553894 16.0257671,165.521096 C18.5660326,164.486889 20.4514959,165.221683 21.8280604,165.758513 C22.0670033,165.851507 22.2756377,165.988885 22.4476202,166.157965" id="Fill-34" fill="#D55155"></path>
                    <path d="M81.4996399,240.760069 C79.9886987,240.760069 78.7593485,241.989419 78.7593485,243.49964 C78.7593485,245.010581 79.9886987,246.239931 81.4996399,246.239931 C83.0105811,246.239931 84.2399313,245.010581 84.2399313,243.49964 C84.2399313,241.989419 83.0105811,240.760069 81.4996399,240.760069 Z M81.4996399,250 C77.9160157,250 75,247.083984 75,243.49964 C75,239.916016 77.9160157,237 81.4996399,237 C85.0839843,237 88,239.916016 88,243.49964 C88,247.083984 85.0839843,250 81.4996399,250 Z" id="Fill-35" fill="#70BEDF"></path>
                    <path d="M10.4996399,260.760069 C8.98941887,260.760069 7.76006869,261.989419 7.76006869,263.50036 C7.76006869,265.010581 8.98941887,266.239931 10.4996399,266.239931 C12.0105811,266.239931 13.2399313,265.010581 13.2399313,263.50036 C13.2399313,261.989419 12.0105811,260.760069 10.4996399,260.760069 Z M10.4996399,270 C6.91601573,270 4,267.083984 4,263.50036 C4,259.916016 6.91601573,257 10.4996399,257 C14.0839843,257 17,259.916016 17,263.50036 C17,267.083984 14.0839843,270 10.4996399,270 Z" id="Fill-36" fill="#E46889"></path>
                    <path d="M265.499649,196.661289 C264.486131,196.661289 263.661289,197.486131 263.661289,198.499649 C263.661289,199.513869 264.486131,200.338711 265.499649,200.338711 C266.513869,200.338711 267.338009,199.513869 267.338009,198.499649 C267.338009,197.486131 266.513869,196.661289 265.499649,196.661289 Z M265.499649,204 C262.466811,204 260,201.533189 260,198.499649 C260,195.466811 262.466811,193 265.499649,193 C268.533189,193 271,195.466811 271,198.499649 C271,201.533189 268.533189,204 265.499649,204 Z" id="Fill-37" fill="#315696"></path>
                    <path d="M48.5,323.779328 C47.5511251,323.779328 46.7788525,324.550826 46.7788525,325.499638 C46.7788525,326.449174 47.5511251,327.220672 48.5,327.220672 C49.4488749,327.220672 50.2218713,326.449174 50.2218713,325.499638 C50.2218713,324.550826 49.4488749,323.779328 48.5,323.779328 Z M48.5,331 C45.4666403,331 43,328.532798 43,325.499638 C43,322.467202 45.4666403,320 48.5,320 C51.5326359,320 54,322.467202 54,325.499638 C54,328.532798 51.5326359,331 48.5,331 Z" id="Fill-38" fill="#D55155"></path>
                    <path d="M17.4996381,153.778355 C16.5515494,153.778355 15.7786039,154.55125 15.7786039,155.5 C15.7786039,156.449474 16.5515494,157.220921 17.4996381,157.220921 C18.4491743,157.220921 19.2213961,156.449474 19.2213961,155.5 C19.2213961,154.55125 18.4491743,153.778355 17.4996381,153.778355 Z M17.4996381,161 C14.4672018,161 12,158.532961 12,155.5 C12,152.467763 14.4672018,150 17.4996381,150 C20.5327982,150 23,152.467763 23,155.5 C23,158.532961 20.5327982,161 17.4996381,161 Z" id="Fill-39" fill="#70BEDF"></path>
                    <path d="M54.5,254.778355 C53.5511251,254.778355 52.7788525,255.55125 52.7788525,256.5 C52.7788525,257.449474 53.5511251,258.220921 54.5,258.220921 C55.4488749,258.220921 56.2211475,257.449474 56.2211475,256.5 C56.2211475,255.55125 55.4488749,254.778355 54.5,254.778355 Z M54.5,262 C51.4666403,262 49,259.532961 49,256.5 C49,253.467763 51.4666403,251 54.5,251 C57.5326359,251 60,253.467763 60,256.5 C60,259.532961 57.5326359,262 54.5,262 Z" id="Fill-40" fill="#D55155"></path>
                    <path d="M261.5,228.778604 C260.55125,228.778604 259.778355,229.551549 259.778355,230.500362 C259.778355,231.449174 260.55125,232.221396 261.5,232.221396 C262.449474,232.221396 263.221645,231.449174 263.221645,230.500362 C263.221645,229.551549 262.449474,228.778604 261.5,228.778604 Z M261.5,236 C258.467763,236 256,233.532798 256,230.500362 C256,227.467926 258.467763,225 261.5,225 C264.532961,225 267,227.467926 267,230.500362 C267,233.532798 264.532961,236 261.5,236 Z" id="Fill-41" fill="#E46889"></path>
                    <path d="M137.500362,290.778129 C136.551549,290.778129 135.778604,291.551125 135.778604,292.5 C135.778604,293.448875 136.551549,294.221148 137.500362,294.221148 C138.449174,294.221148 139.221396,293.448875 139.221396,292.5 C139.221396,291.551125 138.449174,290.778129 137.500362,290.778129 Z M137.500362,298 C134.467926,298 132,295.53336 132,292.5 C132,289.467364 134.467926,287 137.500362,287 C140.532798,287 143,289.467364 143,292.5 C143,295.53336 140.532798,298 137.500362,298 Z" id="Fill-42" fill="#E46889"></path>
                    <path d="M319.5,207.778604 C318.551125,207.778604 317.778129,208.551549 317.778129,209.500362 C317.778129,210.449174 318.551125,211.221396 319.5,211.221396 C320.448875,211.221396 321.221148,210.449174 321.221148,209.500362 C321.221148,208.551549 320.448875,207.778604 319.5,207.778604 Z M319.5,215 C316.467364,215 314,212.533522 314,209.500362 C314,206.467926 316.467364,204 319.5,204 C322.53336,204 325,206.467926 325,209.500362 C325,212.533522 322.53336,215 319.5,215 Z" id="Fill-43" fill="#DDC860"></path>
                    <path d="M204.433732,0 C204.901297,7.68083615 202.730959,24.4962063 201.230565,34.8817591 C205.962041,37.9918338 220.191362,51.4874613 221.880178,54.8631154 C222.180257,55.4641635 221.901114,56.6236273 221.217213,58.1409244 C218.467653,64.2841955 209.20708,76.2492469 205.606831,80.3657278 C204.922233,81.1554771 204.447689,81.6516913 204.259268,81.7705031 C203.086867,82.504341 199.58362,79.9184362 198.487984,79.0657865 C197.029461,74.0337555 194.87308,69.9941529 191.697827,68.142086 C188.250409,66.1222846 183.163026,64.7804097 177.552249,64.1723726 L177.566206,64.0675387 C177.566206,64.0675387 175.472632,54.1642222 166.400481,54.7443035 C157.328329,55.3313738 156.400178,65.1158784 156.400178,65.1158784 L156.462287,65.3604911 C152.254903,66.394853 148.570213,67.9533848 145.988139,70.0640422 C143.685208,71.9440649 142.100373,74.6837262 141.012413,77.4653211 L141.005434,77.47231 C139.665547,78.4297937 124.479463,89.2207045 123.482224,87.8858185 C123.35661,87.7180842 123.007681,87.2777815 122.491266,86.6138329 C119.482801,82.7838983 110.83704,71.7204191 107.954888,65.9615392 C107.187244,64.4309631 106.824358,63.2708004 107.082565,62.7256637 C108.478281,59.7553677 118.771684,46.3016738 123.656689,43.506101 L123.977703,43.4432006 C121.925303,33.04367 117.641154,12.6080331 113.363286,0 C114.640366,0 204.433732,0 204.433732,0" id="Fill-44" fill="#C53753"></path>
                    <path d="M129.001107,127.342108 C128.89723,124.866588 136.142618,126.244628 134.844161,128.035254 C133.545705,129.817629 129.072522,128.860427 129.001107,127.342108" id="Fill-45" fill="#443F3F"></path>
                    <path d="M136.163139,134 C133.949684,134 135.193198,127.363483 137.406653,128.049783 C138.317734,128.338028 138.376593,134 136.163139,134" id="Fill-46" fill="#443F3F"></path>
                    <path d="M192.436764,126.478146 C192.499682,126.39326 192.849223,125.926385 193.247701,125.268516 C194.485079,123.599085 197.134606,120.635137 201.245218,119.192069 C201.489898,119.107183 201.734577,119.022296 201.986247,118.951558 C205.167078,118.010734 213.521128,118.244172 213.989514,122.01454 C214.408964,125.438289 202.105091,129.442094 202.105091,129.442094 C202.105091,129.442094 213.171586,131.443997 212.822044,136.749393 C212.472502,142.054789 202.566487,139.225245 198.840371,139.578938 C198.840371,139.578938 203.153717,141.941608 200.469236,144.650897 C197.931562,147.218708 194.99541,140.99371 182.29306,144.650897 C173.072146,147.303595 161.208696,156.443024 147.926106,149.369162 C134.643516,142.295301 139.418257,127.086498 139.886643,126.138601 C139.886643,126.138601 130.560867,126.492294 129.281544,120.125819 C128.002221,113.759343 131.497639,103.976193 131.497639,103.976193 L132.377785,103.891307 C134.720415,104.775539 137.048364,103.884233 138.579357,103 L138.719174,103.502244 C143.493915,109.755538 140.935269,122.60167 140.935269,122.60167 C140.935269,122.60167 173.372752,115.577326 175.421067,122.842182 C176.294922,125.940533 173.253908,128.734708 172.890384,129.060106 C173.743266,128.44468 188.969309,117.494342 193.946785,120.125819 C195.540696,120.974682 194.226418,123.669823 193.247701,125.268516 C192.758343,125.926385 192.492691,126.386186 192.436764,126.478146" id="Fill-47" fill="#443F3F"></path>
                    <path d="M157.061622,66 L157,65.7471279 C157,65.7471279 157.92087,55.6322446 166.92186,55.0253516 C175.922849,54.4256835 178,64.6633904 178,64.6633904 L177.986152,64.7717642 C171.131553,63.9842482 163.473096,64.3599439 157.061622,66" id="Fill-48" fill="#EDC2B8"></path>
                    <path d="M107.082565,62.7256637 C106.824358,63.2708004 107.187244,64.4309631 107.954888,65.9615392 C110.83704,71.7204191 119.482801,82.7838983 122.491266,86.6138329 C123.007681,87.2777815 123.35661,87.7180842 123.482224,87.8858185 C124.479463,89.2207045 139.665547,78.4297937 141.005434,77.47231 L141.012413,77.4653211 C142.041055,74.835386 143.522608,72.2515779 145.626649,70.3876298 C148.362252,66.2187319 152.391683,63.7215865 157.054071,62.3258968 C158.052705,59.3856532 160.507769,55.1258992 166.400481,54.7443035 C172.171765,54.3752879 175.116725,58.2471562 176.497088,61.1147149 C179.663269,61.38938 182.746405,61.794738 185.591571,62.2014938 C187.685144,62.900387 189.778718,63.5992802 191.174434,64.9970666 C192.625978,66.4507644 193.349656,68.1476771 193.854208,69.8837278 C195.888463,72.0370177 197.387462,75.267302 198.487984,79.0657865 C199.58362,79.9184362 203.086867,82.504341 204.259268,81.7705031 C204.447689,81.6516913 204.922233,81.1554771 205.606831,80.3657278 C209.20708,76.2492469 218.467653,64.2841955 221.217213,58.1409244 C221.901114,56.6236273 222.180257,55.4641635 221.880178,54.8631154 C220.191362,51.4874613 205.962041,37.9918338 201.230565,34.8817591 C202.730959,24.4962063 204.901297,7.68083615 204.433732,0 C204.433732,0 114.640366,0 113.363286,0 C117.641154,12.6080331 121.925303,33.04367 123.977703,43.4432006 L123.656689,43.506101 C118.771684,46.3016738 108.478281,59.7553677 107.082565,62.7256637" id="Fill-49" fill="#F15067"></path>
                    <path d="M178,61.7260985 C176.580094,58.7100466 173.55077,54.6376782 167.614156,55.0258029 C161.552636,55.427159 159.027242,59.9074993 158,63 C164.095259,61.1343554 171.232117,61.1270046 178,61.7260985" id="Fill-50" fill="#EDC2B8"></path>
                    <path d="M146,71 C146.008335,70.9859125 146.017364,70.971825 146.025699,70.958479 C146.13544,70.8554179 146.246571,70.7553225 146.359785,70.6567101 C148.929675,68.4175405 152.596979,66.764114 156.784511,65.6667726 C152.596979,66.764114 148.929675,68.4175405 146.359785,70.6567101 C146.234763,70.7657028 146.120854,70.8865586 146,71 M194,70.4654168 C193.342247,69.722487 192.628929,69.0996716 191.853794,68.6177312 C188.422643,66.4749497 183.359264,65.0513717 177.774961,64.4063129 C177.736065,64.4018642 177.696475,64.3974155 177.657579,64.3929668 C177.696475,64.3974155 177.736065,64.4018642 177.774961,64.4063129 C183.359264,65.0513717 188.422643,66.4749497 191.853794,68.6177312 C192.62754,69.0989302 193.341552,69.7202627 193.998611,70.4609681 C193.999305,70.462451 193.999305,70.4639339 194,70.4654168 M156.953291,65.6230272 C161.195694,64.5316174 165.970134,64 170.69387,64 C165.970828,64.0007414 161.195694,64.5316174 156.953291,65.6230272 M170.699427,64 L170.698038,64 L170.699427,64" id="Fill-51" fill="#D1BDCF"></path>
                    <path d="M146,70 C148.723537,65.9595034 152.724406,63.5362955 157.353516,62.1799258 C156.816314,63.7270456 156.703036,64.8994777 156.703036,64.8994777 L156.764887,65.1379154 C152.57499,66.1461661 148.905616,67.6653546 146.334274,69.7227311 C146.220996,69.8133374 146.109803,69.9053062 146,70 M194,69.5428809 C193.34257,68.8623117 192.628154,68.2914238 191.853972,67.8492923 C188.420883,65.8804784 183.354645,64.5724775 177.767189,63.9797896 L177.781088,63.877602 C177.781088,63.877602 177.781088,63.8769207 177.780394,63.8762395 C177.770664,63.8305957 177.490596,62.5696011 176.717804,61 C176.721974,61 176.726143,61.0006813 176.730313,61.0006813 C179.895148,61.2711377 188.383356,62.6588449 191.419624,65.3797593 C192.926986,66.7313602 193.498241,67.8526985 194,69.5428809" id="Fill-52" fill="#A9324E"></path>
                    <path d="M157.061622,66 L157,65.7330282 C157,65.7330282 157.112859,64.4202899 157.648071,62.6880244 L157.648764,62.6880244 C157.675074,62.6788711 157.701385,62.6704805 157.728388,62.66209 C157.732542,62.6605645 157.736696,62.6590389 157.740851,62.6575133 C161.476954,61.4424104 165.615331,61 169.80633,61 C169.807715,61 169.8091,61 169.810485,61 C169.811177,61 169.811869,61 169.812562,61 C172.191592,61 174.588625,61.1426392 176.939268,61.3661327 C176.939268,61.3661327 176.940653,61.3661327 176.940653,61.3668955 C177.710584,63.1243326 177.989614,64.5362319 177.999308,64.5873379 C178,64.5881007 178,64.5888635 178,64.5888635 L177.986152,64.7032799 C177.947379,64.6987033 177.907913,64.6941266 177.869139,64.68955 C175.617507,64.4210526 173.282789,64.2852784 170.932839,64.2852784 L170.931454,64.2852784 C170.930069,64.2852784 170.928684,64.2852784 170.9273,64.2852784 C166.218398,64.2852784 161.458952,64.8321892 157.229871,65.9549962 C157.173788,65.9694889 157.117705,65.9847445 157.061622,66" id="Fill-53" fill="#C799A2"></path>
                    <path d="M177.02,61.002 C177.014,61.002 177.008,61.001 177.002,61.001 C177.002,61 177,61 177,61 C177.006,61.001 177.013,61.001 177.02,61.002" id="Fill-54" fill="#B4434F"></path>
                    <path d="M158,63 C158.025956,62.989155 158.051913,62.9792137 158.078552,62.9692725 C158.051913,62.9792137 158.025956,62.989155 158,63 M158.090847,62.96385 C161.777322,61.5241753 165.858607,61 169.993852,61 C165.85929,61 161.776639,61.5241753 158.090847,62.96385 M170,61 C169.999317,61 169.998634,61 169.997951,61 C169.998634,61 169.999317,61 170,61" id="Fill-55" fill="#C799A2"></path>
                    <path d="M201,87.65625 L201.034103,87.6494238 C201.081848,87.6016404 203.694163,86.0111363 206.831669,87.9907336 C211.674342,91.0352179 210.548932,98.8648669 206.265554,100.6192 C203.76237,101.643129 202.057203,100.27789 202.057203,100.27789 L201.982176,100.27789 C201.873045,96.1889973 201.586577,91.8202307 201,87.65625" id="Fill-56" fill="#EDC2B8"></path>
                    <path d="M139.000327,103.30361 C137.47048,104.175501 135.144273,105.054368 132.803397,104.182476 C131.665442,103.763968 130.533075,102.926952 129.478947,101.476125 C124.589023,94.7311711 132.852994,83.3407787 139.314679,88.2233719 C139.314679,88.2233719 139.614362,82.8734448 141.661843,77.6560452 L141.668828,77.6490701 C142.757884,74.8729671 144.344315,72.1387149 146.649565,70.2624041 C149.234239,68.1559139 152.922638,66.6004593 157.134958,65.567442 C163.60293,63.9847843 171.329708,63.6220774 178.245457,64.3823669 C183.861884,64.9892035 188.95439,66.3284291 192.405279,68.3442425 C195.58373,70.1926528 197.742282,74.2242797 199.202273,79.2463756 C199.949733,81.8411251 200.508581,84.6939545 200.927718,87.651411 C201.52848,91.9062422 201.821875,96.3703273 201.933645,100.548432 C202.220055,110.550773 201.486566,118.913958 201.486566,118.913958 L201.619293,119.269689 C197.511757,120.692616 194.864212,123.615197 193.62776,125.261329 C194.605745,123.684949 195.919039,121.027423 194.326321,120.190407 C189.35257,117.595657 174.137922,128.393163 173.285678,129 C173.648929,128.679144 176.687667,125.923966 175.814467,122.868858 C173.767684,115.705396 141.354476,122.631703 141.354476,122.631703 C141.354476,122.631703 143.911208,109.964862 139.140039,103.798844 L139.000327,103.30361" id="Fill-57" fill="#EDC2B8"></path>
                    <path d="M87.4222699,108.225213 C87.196514,108.441394 82.9000956,112.520957 81.199871,110.924 C79.464372,109.292175 89.0801654,86.3071542 108.128325,66.0836833 L108.304697,66 C111.21836,71.7462552 119.958644,82.7854809 123,86.6070195 L122.943561,86.6558348 C122.943561,86.6558348 110.244788,99.208334 102.632578,108.957442 C102.632578,108.957442 103.965244,116.335522 101.905221,117.12354 C99.8459032,117.911558 96.8821506,112.081619 96.8821506,112.081619 C96.8821506,112.081619 93.4612422,120.429031 91.3864037,119.98272 C89.3129762,119.536409 91.7610175,111.767807 91.7610175,111.767807 C91.7610175,111.767807 86.7372417,117.444326 85.1294359,116.182102 C83.5561989,114.947773 87.2741176,108.483236 87.4222699,108.225213" id="Fill-58" fill="#EDC2B8"></path>
                    <path d="M237.202049,113.798531 C237.265396,114.189953 238.546419,121.829661 236.491152,121.997413 C234.379576,122.172155 232.092036,113.435068 232.092036,113.435068 C232.092036,113.435068 228.396779,118.852062 226.461168,117.803612 C224.525557,116.755161 226.813097,109.59075 226.813097,109.59075 C223.638695,102.957554 207.618875,82.296091 206,80.2271488 C209.63191,76.1102335 218.972113,64.1439194 221.745316,58 C240.256795,84.9871137 249.681461,112.917833 247.752889,114.308777 C245.873586,115.671763 242.157213,111.07955 241.953094,110.827922 C242.086827,111.156436 244.895223,118.006312 243.177808,119.026804 C241.467432,120.047296 237.434322,114.141025 237.202049,113.798531" id="Fill-59" fill="#EDC2B8"></path>
                    <path d="M131.249071,100.1083 C131.917394,100.296929 132.638848,100.388634 133.319754,100.331971 C134.003457,100.273071 134.671781,100.078478 135.233843,99.6818355 C135.804994,99.3023413 136.285264,98.7722424 136.674653,98.154912 C136.881582,97.8559391 137.022796,97.5062677 137.205956,97.1826911 C137.352763,96.837493 137.48489,96.4826026 137.640786,96.1329312 L137.650573,96.1113097 C137.693916,96.0143858 137.803672,95.972634 137.895252,96.0188592 C137.974947,96.0598655 138.015494,96.1552982 137.994521,96.2432752 C137.903641,96.6302251 137.795982,97.0149383 137.69042,97.4033793 C137.528233,97.7687077 137.398204,98.154912 137.197567,98.505329 C136.819363,99.2240567 136.258699,99.8413871 135.600163,100.313332 C134.925548,100.768128 134.124399,100.98658 133.346319,101 C132.563347,101 131.805541,100.832247 131.103662,100.469155 C131.012082,100.422185 130.974331,100.304385 131.018374,100.207461 C131.057522,100.120975 131.147704,100.079223 131.230895,100.103082 L131.249071,100.1083" id="Fill-60" fill="#BB8C90"></path>
                    <path d="M188,107.499656 C188,105.567031 189.342919,104 190.99966,104 C192.656402,104 194,105.567031 194,107.499656 C194,109.432969 192.656402,111 190.99966,111 C189.342919,111 188,109.432969 188,107.499656" id="Fill-61" fill="#131121"></path>
                    <path d="M150,109.499656 C150,107.567031 151.343446,106 153,106 C154.656554,106 156,107.567031 156,109.499656 C156,111.432969 154.656554,113 153,113 C151.343446,113 150,111.432969 150,109.499656" id="Fill-62" fill="#131121"></path>
                    <path d="M170.524894,95.4412051 C162.893139,97.4266399 157.747116,93.5303088 157,92.9204483 C158.941105,89.0851033 163.102611,85.5479124 170.175774,85.0532478 C174.183667,84.7686462 177.444444,85.6495558 180,87.1064448 L179.951123,87.201312 C179.951123,87.201312 177.563145,93.6183998 170.524894,95.4412051" id="Fill-63" fill="#CF748B"></path>
                    <path d="M156.738346,103.202478 C154.695435,101.592033 154.305939,97.1318005 156.363695,93.0076606 C157.120067,93.6378347 162.329843,97.6639476 170.056146,95.6123805 C177.181593,93.7288599 179.599155,87.0980271 179.599155,87.0980271 L179.648637,87 C186.371157,90.9210838 188.286828,98.917294 186.194435,100.513735 C179.9526,105.303059 160.74641,106.353349 156.738346,103.202478" id="Fill-64" fill="#131121"></path>
                    <path d="M240.977856,107.279046 C240.635307,107.945106 240.200788,108.524878 239.720285,109.068994 C239.235784,109.607404 238.691303,110.083773 238.112167,110.505944 C237.525034,110.915992 236.90058,111.274694 236.236806,111.522149 C235.581696,111.794564 234.883268,111.927918 234.19217,111.999231 C234.095536,112.008502 234.009566,111.93291 234.000902,111.829507 C233.992238,111.738227 234.046886,111.655504 234.126193,111.631258 L234.138855,111.626979 C234.782635,111.427303 235.420418,111.240464 236.017548,110.936672 C236.618676,110.651422 237.205143,110.32481 237.742959,109.916188 C238.294771,109.530387 238.813928,109.090387 239.303094,108.610453 C239.792927,108.136937 240.258102,107.613502 240.681291,107.076518 L240.689955,107.066534 C240.7526,106.987377 240.863895,106.977393 240.93787,107.044427 C241.003181,107.102904 241.017843,107.202028 240.977856,107.279046" id="Fill-65" fill="#BB8C90"></path>
                    <path d="M89.3626025,105.099931 C89.7514068,105.702028 90.1884461,106.296853 90.6576422,106.845867 C91.1253767,107.399971 91.6318454,107.918443 92.1799717,108.386014 C92.7105579,108.876127 93.3047268,109.288432 93.9193591,109.662925 C94.5288756,110.05487 95.1975896,110.333376 95.8714196,110.627153 L95.8845746,110.63297 C95.9817756,110.675146 96.0263566,110.788585 95.9839682,110.885298 C95.9459647,110.971105 95.8524178,111.015462 95.7639868,110.995101 C95.0221892,110.82567 94.2811225,110.591522 93.6043692,110.223573 C92.9151917,109.878895 92.2844811,109.428049 91.7005439,108.931391 C91.1268384,108.421645 90.5977138,107.862451 90.1424035,107.249446 C89.6922091,106.631351 89.2975582,105.98417 89.0132634,105.261362 C88.9745291,105.163194 89.0234951,105.051937 89.1228886,105.013397 C89.209858,104.97922 89.3063282,105.01267 89.3545633,105.088296 L89.3626025,105.099931" id="Fill-66" fill="#BB8C90"></path>
                    <text id="Thank" transform="translate(161.500000, 219.000000) rotate(180.000000) translate(-161.500000, -219.000000) " font-family="Rockwell" font-size="36" font-weight="normal" fill="#5A5A5A">
                        <tspan x="110" y="232">Thank</tspan>
                    </text>
                    <text id="you" transform="translate(163.000000, 186.000000) rotate(180.000000) translate(-163.000000, -186.000000) " font-family="Rockwell" font-size="36" font-weight="normal" fill="#5A5A5A">
                        <tspan x="133" y="199">you</tspan>
                    </text>
                </g>
            </g>
        </g>
    </g>
</svg>